<svg xmlns="http://www.w3.org/2000/svg" width="1077.983" height="1087.615" viewBox="0 0 1077.983 1087.615"><g transform="translate(-828.309 -3163.806)"><g transform="matrix(0.966, 0.259, -0.259, 0.966, 1649.343, 3056.821)" opacity="0.5"><path d="M0,309.777c0,18.337,5.191,23.9,24.782,23.9.612,0,1.246-.022,1.891-.055.181-.01.36-.021.539-.034.313-.021.634-.05.954-.077,22.188-2.122,35.552-25.138,48.661-53.579,5.951-12.91,11.851-26.935,18.5-40.63h0C22.611,239.305,0,290.744,0,309.777Z" transform="translate(0 -58.032)" fill="none" stroke="#fcdec0" stroke-width="5"/><path d="M210.933,105.776c-105.832,0-100.1,163.869-161.115,169.706,22.389-1.9,62.209-21.023,87.117-21.023,40.726,0,53.168,11.852,89.442,11.852s84.757-17.6,84.757-77.215C311.134,141.252,262.631,105.776,210.933,105.776Z" transform="translate(-21.651 0)" fill="none" stroke="#fcdec0" stroke-width="5"/><g transform="translate(163.037 163.884)"><path d="M296.84,282.111a8.483,8.483,0,1,1,5.994-2.482A8.544,8.544,0,0,1,296.84,282.111Z" transform="translate(-288.359 -233.148)" fill="none" stroke="#fcdec0" stroke-width="5"/><path d="M367.521,225.512a8.475,8.475,0,1,1,6-2.482A8.564,8.564,0,0,1,367.521,225.512Z" transform="translate(-319.077 -208.55)" fill="none" stroke="#fcdec0" stroke-width="5"/></g></g><g transform="matrix(0.985, -0.174, 0.174, 0.985, 1225.641, 3306.287)" opacity="0.32"><path d="M0,292.923c0,13.952,3.949,18.186,18.855,18.186.466,0,.948-.016,1.439-.042l.41-.026c.238-.016.482-.038.726-.059,16.881-1.615,27.049-19.126,37.023-40.764,4.528-9.822,9.017-20.493,14.074-30.913h0C17.2,239.305,0,278.442,0,292.923Z" transform="translate(0 -76.088)" fill="none" stroke="#fcdec0" stroke-width="5"/><path d="M172.4,105.776c-80.521,0-76.16,124.677-122.582,129.119C66.852,233.446,97.149,218.9,116.1,218.9c30.986,0,40.452,9.017,68.05,9.017s64.486-13.39,64.486-58.748C248.636,132.768,211.733,105.776,172.4,105.776Z" transform="translate(-28.388)" fill="none" stroke="#fcdec0" stroke-width="5"/><g transform="translate(124.044 149.987)"><path d="M294.812,278.054a6.454,6.454,0,1,1,4.56-1.888A6.5,6.5,0,0,1,294.812,278.054Z" transform="translate(-288.359 -240.802)" fill="none" stroke="#fcdec0" stroke-width="5"/><path d="M365.493,221.455a6.448,6.448,0,1,1,4.564-1.888A6.516,6.516,0,0,1,365.493,221.455Z" transform="translate(-328.635 -208.55)" fill="none" stroke="#fcdec0" stroke-width="5"/></g></g><g transform="translate(1033.748 3368.653) rotate(17)" opacity="0.5"><path d="M0,279.356c0,10.422,2.95,13.585,14.084,13.585.348,0,.708-.012,1.075-.031l.307-.019c.178-.012.36-.028.542-.044,12.61-1.206,20.205-14.287,27.655-30.45,3.382-7.337,6.735-15.308,10.513-23.091h0C12.85,239.3,0,268.539,0,279.356Z" transform="translate(0 -90.622)" fill="none" stroke="#fcdec0" stroke-width="5"/><path d="M141.383,105.776c-60.147,0-56.889,93.131-91.565,96.448,12.724-1.082,35.355-11.948,49.511-11.948,23.146,0,30.217,6.736,50.832,6.736s48.169-10,48.169-43.883C198.33,125.938,170.765,105.776,141.383,105.776Z" transform="translate(-33.81)" fill="none" stroke="#fcdec0" stroke-width="5"/><g transform="translate(92.658 138.8)"><path d="M293.179,274.789a4.821,4.821,0,1,1,3.406-1.411A4.856,4.856,0,0,1,293.179,274.789Z" transform="translate(-288.359 -246.962)" fill="none" stroke="#fcdec0" stroke-width="5"/><path d="M363.86,218.19a4.817,4.817,0,1,1,3.409-1.411A4.867,4.867,0,0,1,363.86,218.19Z" transform="translate(-336.328 -208.55)" fill="none" stroke="#fcdec0" stroke-width="5"/></g></g><g transform="matrix(0.819, -0.574, 0.574, 0.819, 765.022, 3697.361)" opacity="0.52"><path d="M0,286.521c0,12.286,3.478,16.015,16.6,16.015.41,0,.835-.014,1.267-.037l.361-.023c.21-.014.425-.033.639-.052,14.866-1.422,23.82-16.842,32.6-35.9,3.987-8.649,7.94-18.047,12.394-27.222h0C15.149,239.3,0,273.769,0,286.521Z" transform="translate(0 -82.947)" fill="none" stroke="#fcdec0" stroke-width="5"/><path d="M157.764,105.776c-70.907,0-67.066,109.791-107.946,113.7,15-1.276,41.679-14.085,58.368-14.085,27.286,0,35.622,7.941,59.925,7.941S224.9,201.543,224.9,161.6C224.9,129.545,192.4,105.776,157.764,105.776Z" transform="translate(-30.946)" fill="none" stroke="#fcdec0" stroke-width="5"/><g transform="translate(109.234 144.708)"><path d="M294.041,276.513a5.683,5.683,0,1,1,4.016-1.663A5.724,5.724,0,0,1,294.041,276.513Z" transform="translate(-288.359 -243.709)" fill="none" stroke="#fcdec0" stroke-width="5"/><path d="M364.722,219.914a5.678,5.678,0,1,1,4.019-1.663A5.738,5.738,0,0,1,364.722,219.914Z" transform="translate(-332.265 -208.55)" fill="none" stroke="#fcdec0" stroke-width="5"/></g></g><g transform="matrix(-0.966, 0.259, -0.259, -0.966, 1943.698, 4235.106)" opacity="0.52"><path d="M0,286.521c0,12.286,3.478,16.015,16.6,16.015.41,0,.835-.014,1.267-.037l.361-.023c.21-.014.425-.033.639-.052,14.866-1.422,23.82-16.842,32.6-35.9,3.987-8.649,7.94-18.047,12.394-27.222h0C15.149,239.3,0,273.769,0,286.521Z" transform="translate(0 -82.947)" fill="none" stroke="#fcdec0" stroke-width="5"/><path d="M157.764,105.776c-70.907,0-67.066,109.791-107.946,113.7,15-1.276,41.679-14.085,58.368-14.085,27.286,0,35.622,7.941,59.925,7.941S224.9,201.543,224.9,161.6C224.9,129.545,192.4,105.776,157.764,105.776Z" transform="translate(-30.946)" fill="none" stroke="#fcdec0" stroke-width="5"/><g transform="translate(109.234 144.708)"><path d="M294.041,276.513a5.683,5.683,0,1,1,4.016-1.663A5.724,5.724,0,0,1,294.041,276.513Z" transform="translate(-288.359 -243.709)" fill="none" stroke="#fcdec0" stroke-width="5"/><path d="M364.722,219.914a5.678,5.678,0,1,1,4.019-1.663A5.738,5.738,0,0,1,364.722,219.914Z" transform="translate(-332.265 -208.55)" fill="none" stroke="#fcdec0" stroke-width="5"/></g></g><g transform="translate(990.728 3912.703) rotate(41)" opacity="0.5"><path d="M0,295.9c0,14.726,4.169,19.2,19.9,19.2.492,0,1-.017,1.519-.044l.433-.027c.252-.017.509-.04.766-.062,17.818-1.7,28.55-20.187,39.077-43.026,4.779-10.367,9.517-21.631,14.855-32.628h0C18.158,239.305,0,280.613,0,295.9Z" transform="translate(0 -72.901)" fill="none" stroke="#fcdec0" stroke-width="5"/><path d="M179.2,105.776c-84.989,0-80.386,131.6-129.384,136.283,17.979-1.529,49.957-16.882,69.96-16.882,32.705,0,42.7,9.518,71.826,9.518s68.064-14.133,68.064-62.008C259.668,134.265,220.718,105.776,179.2,105.776Z" transform="translate(-27.199 0)" fill="none" stroke="#fcdec0" stroke-width="5"/><g transform="translate(130.927 152.44)"><path d="M295.17,278.77a6.812,6.812,0,1,1,4.813-1.993A6.861,6.861,0,0,1,295.17,278.77Z" transform="translate(-288.359 -239.451)" fill="none" stroke="#fcdec0" stroke-width="5"/><path d="M365.851,222.171a6.806,6.806,0,1,1,4.817-1.993A6.877,6.877,0,0,1,365.851,222.171Z" transform="translate(-326.948 -208.55)" fill="none" stroke="#fcdec0" stroke-width="5"/></g></g></g></svg>