<svg id="macaron" xmlns="http://www.w3.org/2000/svg" width="40.885" height="77.276" viewBox="0 0 40.885 77.276">
  <path id="Path_2522" data-name="Path 2522" d="M279.757,244.626c0,1.834-1.851,3.32-4.134,3.32H245.571c-2.282,0-4.133-1.486-4.133-3.32h0c0-1.834,1.851-3.32,4.133-3.32h30.052c2.283,0,4.134,1.486,4.134,3.32Z" transform="translate(-240.067 -204.3)" fill="#f19c30"/>
  <g id="Group_295" data-name="Group 295" transform="translate(0.355 27.328)">
    <path id="Path_2523" data-name="Path 2523" d="M274.755,279.5a.589.589,0,0,1,.64.519v1.367c0,3.643-3.655,6.606-8.148,6.606H243.191c-4.493,0-8.148-2.963-8.148-6.606V280.02a.589.589,0,0,1,.64-.519Z" transform="translate(-235.043 -263.75)" fill="#7d5a50"/>
    <path id="Path_2524" data-name="Path 2524" d="M273.178,190.741a2.51,2.51,0,0,1-1.787-.676.313.313,0,0,0-.415,0,2.7,2.7,0,0,1-3.574,0,.3.3,0,0,0-.208-.079.293.293,0,0,0-.207.079,2.7,2.7,0,0,1-3.575,0,.313.313,0,0,0-.415,0,2.7,2.7,0,0,1-3.575,0,.314.314,0,0,0-.415,0,2.7,2.7,0,0,1-3.574,0,.313.313,0,0,0-.415,0,2.7,2.7,0,0,1-3.575,0,.313.313,0,0,0-.415,0,2.7,2.7,0,0,1-3.575,0,.313.313,0,0,0-.415,0,2.7,2.7,0,0,1-3.574,0,.313.313,0,0,0-.415,0,2.7,2.7,0,0,1-3.575,0,.313.313,0,0,0-.415,0,2.508,2.508,0,0,1-1.787.676c-1.226,0-2.223-.745-2.223-1.66v-2.586c0-3.342,3.586-6.061,7.994-6.061h24.365c4.408,0,7.993,2.719,7.993,6.061v2.587C275.4,190,274.4,190.741,273.178,190.741Z" transform="translate(-235.049 -180.433)" fill="#7d5a50"/>
  </g>
  <path id="Path_2525" data-name="Path 2525" d="M125.953,244.626c0,1.834-1.868,3.32-4.172,3.32H91.451c-2.3,0-4.172-1.486-4.172-3.32h0c0-1.834,1.868-3.32,4.172-3.32h30.33c2.3,0,4.172,1.486,4.172,3.32Z" transform="translate(-86.263 -231.628)" fill="#ff7697"/>
  <path id="Path_2526" data-name="Path 2526" d="M91.765,244.626a3.333,3.333,0,0,1,3.346-3.32H90.625a3.32,3.32,0,1,0,0,6.64h4.486A3.333,3.333,0,0,1,91.765,244.626Z" transform="translate(-86.262 -231.628)" opacity="0.1"/>
  <path id="Path_2527" data-name="Path 2527" d="M120.947,279.5a.593.593,0,0,1,.646.519v1.367c0,3.643-3.687,6.606-8.22,6.606H89.1c-4.532,0-8.22-2.963-8.22-6.606V280.02a.593.593,0,0,1,.646-.519Z" transform="translate(-80.885 -263.75)" fill="#7d5a50"/>
  <path id="Path_2528" data-name="Path 2528" d="M86.287,281.388v-1.366a.522.522,0,0,1,.524-.519h-5.4a.522.522,0,0,0-.525.519v1.366a6.648,6.648,0,0,0,6.674,6.606h5.4A6.648,6.648,0,0,1,86.287,281.388Z" transform="translate(-80.885 -263.751)" opacity="0.1"/>
  <path id="Path_2530" data-name="Path 2530" d="M119.354,191.481a2.45,2.45,0,0,1-1.8-.725.3.3,0,0,0-.419,0,2.605,2.605,0,0,1-3.606,0,.3.3,0,0,0-.418,0,2.606,2.606,0,0,1-3.606,0,.3.3,0,0,0-.418,0,2.605,2.605,0,0,1-3.606,0,.3.3,0,0,0-.419,0,2.6,2.6,0,0,1-3.606,0,.3.3,0,0,0-.418,0,2.606,2.606,0,0,1-3.607,0,.3.3,0,0,0-.418,0,2.605,2.605,0,0,1-3.606,0,.3.3,0,0,0-.418,0,2.606,2.606,0,0,1-3.606,0,.3.3,0,0,0-.419,0,2.605,2.605,0,0,1-3.606,0,.3.3,0,0,0-.419,0,2.45,2.45,0,0,1-1.8.725,2.054,2.054,0,0,1-2.243-1.78v-2.772c0-3.582,3.618-6.5,8.064-6.5h24.579c4.447,0,8.064,2.914,8.064,6.5V189.7A2.057,2.057,0,0,1,119.354,191.481Z" transform="translate(-80.89 -180.433)" fill="#7d5a50"/>
  <g id="Group_296" data-name="Group 296" transform="translate(0)" opacity="0.1">
    <path id="Path_2531" data-name="Path 2531" d="M85.337,186.928a6.529,6.529,0,0,1,6.548-6.5H87.433a6.529,6.529,0,0,0-6.548,6.5V189.7a1.828,1.828,0,0,0,3.285,1.055.214.214,0,0,1,.34,0,1.812,1.812,0,0,0,.827.613v-4.44Z" transform="translate(-80.885 -180.432)"/>
  </g>
  <path id="Path_2538" data-name="Path 2538" d="M349,391.381c0,1.834-1.86,3.32-4.153,3.32H314.652c-2.293,0-4.153-1.486-4.153-3.32h0c0-1.834,1.86-3.32,4.153-3.32h30.191c2.294,0,4.153,1.486,4.153,3.32Z" transform="translate(-309.128 -324.911)" fill="#fff"/>
  <g id="Group_298" data-name="Group 298" transform="translate(0.355 54.007)">
    <path id="Path_2539" data-name="Path 2539" d="M343.993,426.256a.591.591,0,0,1,.643.519v1.366c0,3.643-3.671,6.606-8.184,6.606H312.291c-4.513,0-8.184-2.964-8.184-6.606v-1.366a.591.591,0,0,1,.643-.519Z" transform="translate(-304.107 -411.479)" fill="#7d5a50"/>
    <path id="Path_2540" data-name="Path 2540" d="M342.408,337.421a2.537,2.537,0,0,1-1.8-.671.317.317,0,0,0-.417,0,2.735,2.735,0,0,1-3.59,0,.318.318,0,0,0-.417,0,2.735,2.735,0,0,1-3.59,0,.317.317,0,0,0-.417,0,2.736,2.736,0,0,1-3.59,0,.317.317,0,0,0-.417,0,2.736,2.736,0,0,1-3.59,0,.317.317,0,0,0-.417,0,2.736,2.736,0,0,1-3.591,0,.317.317,0,0,0-.417,0,2.736,2.736,0,0,1-3.59,0,.317.317,0,0,0-.417,0,2.735,2.735,0,0,1-3.59,0,.317.317,0,0,0-.417,0,2.736,2.736,0,0,1-3.59,0,.317.317,0,0,0-.417,0,2.537,2.537,0,0,1-1.8.671c-1.231,0-2.233-.74-2.233-1.649V333.2c0-3.318,3.6-6.018,8.029-6.018h24.472c4.427,0,8.029,2.7,8.029,6.018v2.568C344.641,336.681,343.639,337.421,342.408,337.421Z" transform="translate(-304.112 -327.186)" fill="#7d5a50"/>
  </g>
</svg>
