<svg id="Group_361" data-name="Group 361" xmlns="http://www.w3.org/2000/svg" width="423.939" height="143.901" viewBox="0 0 423.939 143.901">
  <g id="galaxy">
    <path id="Path_3" data-name="Path 3" d="M262.934,62.169c-4.367,5.044-12.831,19.705-19.458,17.167-8.612-3.3,11.241-35.25,21.806-33.046,5.064,1.058,1.938,6.849,5.239,7.573,5.669,1.246,12.277-11.606-.015-16.377-10.59-4.113-35.036,5.486-45.986,33.638-18.556,25.1-25.717,19.653-26.409,9.068C217.846,61.3,233.265,35.606,236.489,17.63,238.632,5.7,232.844-7.476,212.51,6.8,193.277,20.3,174.546,54.869,179,84.4c-9.514,14.661-16.368,12.776-14.4.508,1.584-9.9-7.443-9.97-11.052-3.1-6.572,12.513-15.886,19.827-20.34,17.637-9.227-4.536,9.734-37.723,21.765-35.965,5.782.846.948,7.559,5.649,7.953,8.022.672,12.513-11.78,2.394-16.245-10.57-4.668-26.517,2.675-38.4,17.27-11.995,14.737-13.42,31.635-1.3,37.05,12.19,5.448,24.913-4.677,31.13-14.191,3.127,13.519,18.008,9.34,27.824-4.254,12.4,15.634,33.811,5.467,42.951-10.069,1.312,9.284,19.761,19.31,38-8.029-.005,21.581,16.788,18.163,20.315,13.646,3.209-4.1-9.581.705-8.8-16.316C275.339,57.365,268.112,56.185,262.934,62.169Zm-65.987,5.97c3.5-33.7,24.3-57.4,28.721-55.477C231.194,15.069,213.448,49.021,196.947,68.139Zm226.222,26.5c-1.179-2.2-9.591-12.518-30.51-14,10.211-36.3,11.113-51.5,5.029-53.912-7.561-3-12.01,9.251-15.886,21.36-6.4,19.978-23.231,28.575-15.675,6.449,4.306-12.607,9.5-23.263,3.173-25.952-3.988-1.7-9.181,2.068-17.357,18.45-21.294,42.663-28.788,23.343-34.821,11.037,25.953-26.173,29.634-17.975,29.2-23.2-.533-6.435-13.5-11.451-34.821,11.578-8.2-18.422-25.681-17.157-27.153-8.851-.748,4.216,4.762-3.333,17.782,19.856C291.122,71.213,283.479,87.035,289.3,87.393c4.875.3,10.883-11.644,18.121-18.643,14,28.65,34.867,10.261,41.249-2.9-1.42,19.851,24.918,14.835,33.171-4.01a166.421,166.421,0,0,1-5.869,19.823c-41.065,8.743-70.042,48.638-49.83,59.505,16,8.6,47.57-10.135,63.045-50.8,0,0,19.966-2.021,31.9,9.871C422.667,101.791,426.224,100.319,423.169,94.636Zm-89.608,39.25c-13.733-1.5,11.277-32.575,37.738-40.764C363.922,109.721,346.186,135.269,333.561,133.887ZM86.081,94.528c-8.955,13.543-47.472,43.222-74.825,25.8-22.078-14.064-8.637-49.155,24.467-77.589C83.467,1.728,127.9-4.34,137.6,13.311c9.837,17.9-25.846,36.439-21.77,20.076,2.625-10.553,1.471-32.011-44.366.371-29.731,21-52.973,61.381-26.107,65.409,19.735,2.961,34.985-16.786,46.017-22.854,20.294-11.164,20.52,16.227,12.1,34.724-14.84,32.6-44.376,36.134-47.062,32.11-2.789-4.188,6.843.1,19.684-21.463C87.147,103.126,86.081,94.528,86.081,94.528Z" transform="translate(-0.43 -0.582)" fill="#502c1e"/>
    <path id="Path_4" data-name="Path 4" d="M795.14,46.348a5.78,5.78,0,1,1,5.8,5.721A5.7,5.7,0,0,1,795.14,46.348Zm5.8,4.766a4.753,4.753,0,1,0-4.649-4.766A4.6,4.6,0,0,0,800.936,51.114Zm-1.208-1.462h-1V43.071h2.505c1.556,0,2.322.573,2.322,1.871a1.709,1.709,0,0,1-1.706,1.81l1.871,2.9h-1.119l-1.735-2.853h-1.147v2.858Zm1.194-3.7c.846,0,1.6-.061,1.6-1.072,0-.813-.738-.964-1.434-.964h-1.358v2.035Z" transform="translate(-386.393 -21.821)" fill="#502c1e"/>
  </g>
</svg>
