<svg xmlns="http://www.w3.org/2000/svg" width="36.732" height="35.511" viewBox="0 0 36.732 35.511">
  <path id="user" d="M33.819,22.542a17.3,17.3,0,0,0-4.388-2.656,1.455,1.455,0,0,0-1.894.7,1.369,1.369,0,0,0,.729,1.831,14.433,14.433,0,0,1,3.659,2.2,5.453,5.453,0,0,1,1.938,4.157V31.35a1.413,1.413,0,0,1-1.435,1.387H4.3A1.413,1.413,0,0,1,2.87,31.35V28.784a5.453,5.453,0,0,1,1.938-4.157c1.45-1.232,5.674-4.1,13.558-4.1A10.458,10.458,0,0,0,28.984,10.265,10.458,10.458,0,0,0,18.366,0,10.458,10.458,0,0,0,7.748,10.265,10.139,10.139,0,0,0,11.9,18.4a20.22,20.22,0,0,0-8.985,4.142A8.189,8.189,0,0,0,0,28.784V31.35a4.239,4.239,0,0,0,4.3,4.161H32.428a4.239,4.239,0,0,0,4.3-4.161V28.784a8.189,8.189,0,0,0-2.914-6.241Zm-23.2-12.277a7.631,7.631,0,0,1,7.748-7.491,7.631,7.631,0,0,1,7.748,7.491,7.631,7.631,0,0,1-7.748,7.491A7.631,7.631,0,0,1,10.618,10.265Zm0,0" transform="translate(0 0)" fill="#7d5a50"/>
</svg>
