<svg xmlns="http://www.w3.org/2000/svg" width="48.179" height="38.643" viewBox="0 0 48.179 38.643">
  <g id="Group_565" data-name="Group 565" transform="translate(0 -79.505)">
    <path id="shopping-cart" d="M37.231,11.93v5.549A1.411,1.411,0,0,1,35.8,18.865h-.944l-.6,5.2A1.419,1.419,0,0,1,32.824,25.3a1.491,1.491,0,0,1-.162-.009A1.4,1.4,0,0,1,31.4,23.757l.748-6.433a1.418,1.418,0,0,1,1.426-1.232h.792V13.317H3.369v2.774H27.833a1.388,1.388,0,1,1,0,2.774H5.792L7.209,30.293a2.839,2.839,0,0,0,2.849,2.444H27.788a2.835,2.835,0,0,0,2.852-2.465,1.424,1.424,0,0,1,1.586-1.224,1.4,1.4,0,0,1,1.266,1.533,5.669,5.669,0,0,1-5.7,4.929H10.058a5.679,5.679,0,0,1-5.7-4.888L2.9,18.865H1.934A1.411,1.411,0,0,1,.5,17.478V11.93a1.411,1.411,0,0,1,1.435-1.387H7.024L14.606.566a1.467,1.467,0,0,1,2.006-.3,1.357,1.357,0,0,1,.307,1.939l-6.334,8.334H27.2L20.866,2.209A1.357,1.357,0,0,1,21.173.27a1.467,1.467,0,0,1,2.006.3l7.582,9.976H35.8a1.412,1.412,0,0,1,1.435,1.387Zm-19.8,11.1v5.549a1.436,1.436,0,0,0,2.87,0V23.027a1.436,1.436,0,0,0-2.87,0Zm5.739,0v5.549a1.436,1.436,0,0,0,2.87,0V23.027a1.436,1.436,0,0,0-2.87,0Zm-11.479,0v5.549a1.436,1.436,0,0,0,2.87,0V23.027a1.436,1.436,0,0,0-2.87,0Zm0,0" transform="translate(-0.499 82.637)" fill="#7d5a50"/>
    <ellipse id="Ellipse_53" data-name="Ellipse 53" cx="13.839" cy="13.147" rx="13.839" ry="13.147" transform="translate(20.501 79.505)" fill="#7d5a50"/>
    <text id="_3" data-name="3" transform="translate(29.64 96.119)" fill="#fcdec0" font-size="14" font-family="SegoeUI-Bold, Segoe UI" font-weight="700"><tspan x="0" y="0">3</tspan></text>
  </g>
</svg>
