<svg xmlns="http://www.w3.org/2000/svg" width="34.525" height="34.525" viewBox="0 0 34.525 34.525"><path d="M35.025,11.6v5.395a1.349,1.349,0,0,1-1.349,1.349h-.887L32.221,23.4a1.349,1.349,0,0,1-2.68-.3l.7-6.255a1.349,1.349,0,0,1,1.34-1.2h.744v-2.7H3.2v2.7H26.191a1.349,1.349,0,1,1,0,2.7H5.474l1.332,11.11a2.7,2.7,0,0,0,2.678,2.376H26.148a2.7,2.7,0,0,0,2.68-2.4,1.349,1.349,0,0,1,2.68.3,5.391,5.391,0,0,1-5.361,4.792H9.484a5.4,5.4,0,0,1-5.356-4.753L2.758,18.342h-.91A1.349,1.349,0,0,1,.5,16.993V11.6A1.349,1.349,0,0,1,1.848,10.25H6.632L13.758.55a1.349,1.349,0,0,1,2.174,1.6l-5.953,8.1H25.6l-5.953-8.1A1.349,1.349,0,0,1,21.816.55l7.126,9.7h4.734A1.349,1.349,0,0,1,35.025,11.6ZM16.414,22.388v5.395a1.349,1.349,0,1,0,2.7,0V22.388a1.349,1.349,0,0,0-2.7,0Zm5.395,0v5.395a1.349,1.349,0,1,0,2.7,0V22.388a1.349,1.349,0,0,0-2.7,0Zm-10.789,0v5.395a1.349,1.349,0,0,0,2.7,0V22.388a1.349,1.349,0,0,0-2.7,0Zm0,0" transform="translate(-0.5 0)" fill="#7d5a50"/></svg>