<svg xmlns="http://www.w3.org/2000/svg" xmlns:xlink="http://www.w3.org/1999/xlink" width="1920" height="322" viewBox="0 0 1920 322"><defs><clipPath id="a"><rect width="1920" height="322" transform="translate(0 2956)" fill="none"/></clipPath></defs><g transform="translate(0 -2956)" clip-path="url(#a)"><path d="M-218.763,5772.992s239.257-145.616,490.114,8.082c304.484,211.411,402.783,47.5,677.771,93.534,207.9,31.792,204.356,104.169,422.18,90.589s249.295-206.547,483.37-149.908c334.936,116.6,545.143-39.976,545.143-39.976v60.857l6.737,977.522-2627.514.006,2.2-846.66V5772.992Z" transform="translate(-132.794 -2739.585)" fill="#7d5a50" opacity="0.43"/><path d="M-218.8,5770.532s235.552-139.874,482.526,7.763c299.77,203.074,396.547,45.63,667.277,89.845,204.68,30.538,201.192,100.061,415.644,87.017s245.435-198.4,475.886-144c329.75,112.005,536.7-38.4,536.7-38.4v58.457l6.633,938.974-2586.834.006,2.166-813.272V5770.532Z" transform="translate(-100.454 -2700.382)" fill="#7d5a50"/></g></svg>