<svg xmlns="http://www.w3.org/2000/svg" width="88.148" height="84.724" viewBox="0 0 88.148 84.724"><g transform="translate(0)"><path d="M5.216,42.467H.092C.029,42.057,0,41.85,0,41.814a11.694,11.694,0,0,1,.671-3.9,12.093,12.093,0,0,1,1.923-3.476A12.1,12.1,0,0,1,.671,30.959a11.686,11.686,0,0,1,0-7.805,12.092,12.092,0,0,1,1.923-3.476A12.093,12.093,0,0,1,.671,16.2,11.7,11.7,0,0,1,0,12.3C0,5.517,5.815,0,12.963,0a13.564,13.564,0,0,1,4.114.637A13.213,13.213,0,0,1,20.74,2.461,13.214,13.214,0,0,1,24.4.637a13.609,13.609,0,0,1,8.228,0A13.213,13.213,0,0,1,36.3,2.461,13.219,13.219,0,0,1,39.96.637a13.609,13.609,0,0,1,8.227,0,13.213,13.213,0,0,1,3.664,1.824A13.214,13.214,0,0,1,55.515.637a13.61,13.61,0,0,1,8.228,0,13.209,13.209,0,0,1,3.664,1.824A13.219,13.219,0,0,1,71.07.637,13.562,13.562,0,0,1,75.184,0c7.148,0,12.963,5.517,12.963,12.3a11.694,11.694,0,0,1-.671,3.9,12.089,12.089,0,0,1-1.923,3.476,12.094,12.094,0,0,1,1.923,3.476,11.683,11.683,0,0,1,0,7.805,12.09,12.09,0,0,1-1.923,3.476,12.09,12.09,0,0,1,1.923,3.476,11.694,11.694,0,0,1,.671,3.9c0,.216-.006.435-.018.652h-5.2c.02-.214.031-.434.031-.652a7.228,7.228,0,0,0-2.635-5.535,2.378,2.378,0,0,1,0-3.688,7.13,7.13,0,0,0,0-11.069,2.378,2.378,0,0,1,0-3.688A7.226,7.226,0,0,0,82.962,12.3a7.6,7.6,0,0,0-7.778-7.379,7.973,7.973,0,0,0-5.834,2.5,2.686,2.686,0,0,1-3.888,0,8.057,8.057,0,0,0-11.668,0,2.686,2.686,0,0,1-3.888,0,8.057,8.057,0,0,0-11.668,0,2.686,2.686,0,0,1-3.888,0,8.057,8.057,0,0,0-11.667,0,2.686,2.686,0,0,1-3.888,0,7.973,7.973,0,0,0-5.834-2.5A7.6,7.6,0,0,0,5.185,12.3,7.228,7.228,0,0,0,7.82,17.833a2.377,2.377,0,0,1,0,3.688,7.13,7.13,0,0,0,0,11.069,2.377,2.377,0,0,1,0,3.688,7.228,7.228,0,0,0-2.635,5.535c0,.217.01.436.031.652Z" fill="#7d5a50"/><path d="M75.185,42.754a13.565,13.565,0,0,1-4.114-.637,13.217,13.217,0,0,1-3.664-1.824,13.217,13.217,0,0,1-3.664,1.824,13.611,13.611,0,0,1-8.228,0,13.217,13.217,0,0,1-3.664-1.824,13.223,13.223,0,0,1-3.664,1.824,13.611,13.611,0,0,1-8.228,0A13.217,13.217,0,0,1,36.3,40.293a13.212,13.212,0,0,1-3.664,1.824,13.611,13.611,0,0,1-8.228,0,13.212,13.212,0,0,1-3.664-1.824,13.222,13.222,0,0,1-3.664,1.824,13.566,13.566,0,0,1-4.114.637C5.816,42.754,0,37.237,0,30.456a11.693,11.693,0,0,1,.671-3.9,12.09,12.09,0,0,1,1.923-3.476A12.087,12.087,0,0,1,.671,19.6a11.685,11.685,0,0,1,0-7.806A12.09,12.09,0,0,1,2.594,8.319,12.091,12.091,0,0,1,.671,4.843,11.693,11.693,0,0,1,0,.94C0,.628.013.311.038,0H5.249a7.02,7.02,0,0,0-.064.94A7.227,7.227,0,0,0,7.82,6.475a2.378,2.378,0,0,1,0,3.689,7.13,7.13,0,0,0,0,11.069,2.378,2.378,0,0,1,0,3.689,7.226,7.226,0,0,0-2.635,5.534,7.6,7.6,0,0,0,7.778,7.379,7.972,7.972,0,0,0,5.834-2.5,2.687,2.687,0,0,1,3.888,0,8.057,8.057,0,0,0,11.668,0,2.687,2.687,0,0,1,3.888,0,8.057,8.057,0,0,0,11.668,0,2.687,2.687,0,0,1,3.888,0,8.057,8.057,0,0,0,11.667,0,2.687,2.687,0,0,1,3.888,0,7.972,7.972,0,0,0,5.834,2.5,7.6,7.6,0,0,0,7.778-7.379,7.227,7.227,0,0,0-2.635-5.534,2.377,2.377,0,0,1,0-3.689,7.13,7.13,0,0,0,0-11.069,2.377,2.377,0,0,1,0-3.689A7.227,7.227,0,0,0,82.962.94,7.022,7.022,0,0,0,82.9,0h5.112c.093.6.137.9.137.94a11.693,11.693,0,0,1-.671,3.9,12.09,12.09,0,0,1-1.923,3.476,12.1,12.1,0,0,1,1.923,3.476,11.685,11.685,0,0,1,0,7.806,12.09,12.09,0,0,1-1.923,3.476,12.09,12.09,0,0,1,1.923,3.476,11.693,11.693,0,0,1,.671,3.9C88.148,37.237,82.332,42.754,75.185,42.754Z" transform="translate(0 41.971)" fill="#7d5a50"/></g><g transform="translate(30.681 29.64)"><path d="M0,0" transform="translate(19.756 12.722)" fill="none" stroke="#7d5a50" stroke-linecap="round" stroke-width="4"/><g transform="translate(0 25.443) rotate(-90)" fill="#7d5a50" stroke-linecap="round"><path d="M 21.98838806152344 20.1507396697998 L 3.455029487609863 20.1507396697998 L 12.72170925140381 4.015815734863281 L 21.98838806152344 20.1507396697998 Z" stroke="none"/><path d="M 12.72170925140381 8.031632423400879 L 6.910058975219727 18.1507396697998 L 18.53335952758789 18.1507396697998 L 12.72170925140381 8.031632423400879 M 12.72170925140381 -1.9073486328125e-06 L 25.44341850280762 22.1507396697998 L 0 22.1507396697998 L 12.72170925140381 -1.9073486328125e-06 Z" stroke="none" fill="#7d5a50"/></g></g></svg>