<svg xmlns="http://www.w3.org/2000/svg" xmlns:xlink="http://www.w3.org/1999/xlink" width="1920" height="323" viewBox="0 0 1920 323"><defs><clipPath id="a"><rect width="1920" height="323" transform="translate(0 1860)" fill="none"/></clipPath></defs><g transform="translate(0 -1860)" clip-path="url(#a)"><g transform="translate(0 -49.531)"><path d="M-218.763,5770.532s239.257-139.874,490.114,7.763c304.484,203.074,402.783,45.63,677.771,89.845,207.9,30.538,204.356,100.061,422.18,87.017s249.295-198.4,483.37-144c334.936,112.005,545.143-38.4,545.143-38.4v58.457l6.737,938.974-2627.514.006,2.2-813.272V5770.532Z" transform="translate(-132.794 -4906.401)" fill="#e5b299" opacity="0.43"/><path d="M-218.8,5770.532s235.552-139.874,482.526,7.763c299.77,203.074,396.547,45.63,667.277,89.845,204.68,30.538,201.192,100.061,415.644,87.017s245.435-198.4,475.886-144c329.75,112.005,536.7-38.4,536.7-38.4v58.457l6.633,938.974-2586.834.006,2.166-813.272V5770.532Z" transform="translate(-100.454 -4881.526)" fill="#b4846c"/><rect width="2321" height="1232" transform="translate(-135 1856.203)" fill="#b4846c"/></g><g transform="translate(0 -24.022)"><path d="M-218.763,5783.863s239.257-170.988,490.114,9.49c304.484,248.247,402.783,55.779,677.771,109.831,207.9,37.331,204.356,122.318,422.18,106.373s249.295-242.537,483.37-176.028c334.936,136.92,545.143-46.942,545.143-46.942v71.461l6.737,1147.846-2627.514.008,2.2-994.183V5783.863Z" transform="translate(-132.794 -3813.932)" fill="#fcdec0"/><path d="M-218.978,5770.532s215.853-139.874,442.172,7.763c274.7,203.074,363.384,45.63,611.473,89.845,187.563,30.538,184.366,100.061,380.884,87.017s224.909-198.4,436.088-144c302.173,112.005,491.819-38.4,491.819-38.4v58.457l6.078,938.974-2370.5.006,1.985-813.272V5770.532Z" transform="translate(36.206 -3813.932)" fill="#fcdec0" opacity="0.4"/><rect width="2321" height="1035" transform="translate(-336 2254.969)" fill="#fcdec0"/></g></g></svg>