<svg xmlns="http://www.w3.org/2000/svg" width="40" height="39" viewBox="0 0 40 39"><rect width="40" height="39" rx="6" transform="translate(0 0)" fill="#7d5a50"/><path d="M9.984,1.775a30.612,30.612,0,0,1,3.994.111,5.145,5.145,0,0,1,1.886.333A3.9,3.9,0,0,1,17.749,4.1a5.145,5.145,0,0,1,.333,1.886c0,1,.111,1.331.111,3.994a30.611,30.611,0,0,1-.111,3.994,5.145,5.145,0,0,1-.333,1.886,3.9,3.9,0,0,1-1.886,1.886,5.145,5.145,0,0,1-1.886.333c-1,0-1.331.111-3.994.111a30.611,30.611,0,0,1-3.994-.111A5.145,5.145,0,0,1,4.1,17.749a3.9,3.9,0,0,1-1.886-1.886,5.145,5.145,0,0,1-.333-1.886c0-1-.111-1.331-.111-3.994A30.612,30.612,0,0,1,1.886,5.99,5.145,5.145,0,0,1,2.219,4.1,3.984,3.984,0,0,1,3,3,1.875,1.875,0,0,1,4.1,2.219,5.145,5.145,0,0,1,5.99,1.886a30.612,30.612,0,0,1,3.994-.111M9.984,0a32.777,32.777,0,0,0-4.1.111,6.848,6.848,0,0,0-2.44.444A4.343,4.343,0,0,0,1.664,1.664,4.343,4.343,0,0,0,.555,3.439a5.054,5.054,0,0,0-.444,2.44A32.777,32.777,0,0,0,0,9.984a32.777,32.777,0,0,0,.111,4.1,6.848,6.848,0,0,0,.444,2.44A4.343,4.343,0,0,0,1.664,18.3a4.343,4.343,0,0,0,1.775,1.109,6.848,6.848,0,0,0,2.44.444,32.778,32.778,0,0,0,4.1.111,32.778,32.778,0,0,0,4.1-.111,6.848,6.848,0,0,0,2.44-.444,4.654,4.654,0,0,0,2.884-2.884,6.848,6.848,0,0,0,.444-2.44c0-1.109.111-1.442.111-4.1a32.778,32.778,0,0,0-.111-4.1,6.848,6.848,0,0,0-.444-2.44A4.343,4.343,0,0,0,18.3,1.664,4.343,4.343,0,0,0,16.529.555a6.848,6.848,0,0,0-2.44-.444A32.777,32.777,0,0,0,9.984,0m0,4.881a5.021,5.021,0,0,0-5.1,5.1,5.1,5.1,0,1,0,5.1-5.1m0,8.431A3.269,3.269,0,0,1,6.656,9.984,3.269,3.269,0,0,1,9.984,6.656a3.269,3.269,0,0,1,3.328,3.328,3.269,3.269,0,0,1-3.328,3.328m5.325-9.873a1.22,1.22,0,1,0,1.22,1.22,1.231,1.231,0,0,0-1.22-1.22" transform="translate(9.289 9.908)" fill="#fff" fill-rule="evenodd"/></svg>