<svg xmlns="http://www.w3.org/2000/svg" xmlns:xlink="http://www.w3.org/1999/xlink" width="800" height="106" viewBox="0 0 800 106"><defs><clipPath id="a"><rect width="800" height="106" transform="translate(0 5194)" fill="none"/></clipPath></defs><g transform="translate(0 -5194)" clip-path="url(#a)"><path d="M1844.9,106.31h-.011c-15.935,0-33.3-2.09-54.655-6.576-19.271-4.048-40.164-9.714-62.284-15.712l-.016,0c-58.789-15.942-131.955-35.783-229.955-40.74-26.847-1.358-50.655-2.018-72.783-2.018-36.959,0-68.781,1.869-100.147,5.881-28.6,3.659-54.085,8.684-83.59,14.5-39.535,7.8-84.342,16.631-150.194,24.8-12.619,1.714-25.687,3.01-38.84,3.852-12.686.812-25.789,1.225-38.946,1.226-68.3,0-142.809-10.914-221.446-32.448-30.618-8.384-61.908-18.41-93-29.8-24.587-9-49.046-18.855-72.7-29.275H1892.48c9.518,15.165,16.295,29.08,20.141,41.36a76.9,76.9,0,0,1,3.753,20.214,40.535,40.535,0,0,1-3.159,17.957,32.524,32.524,0,0,1-4.432,7.224,35.952,35.952,0,0,1-6.6,6.257,47.517,47.517,0,0,1-8.981,5.14,70.34,70.34,0,0,1-11.568,3.873A151.551,151.551,0,0,1,1844.9,106.31Z" transform="translate(-1055.402 5193.69)" fill="#7d5a50"/></g></svg>