<svg xmlns="http://www.w3.org/2000/svg" xmlns:xlink="http://www.w3.org/1999/xlink" width="1916" height="93" viewBox="0 0 1916 93"><defs><clipPath id="a"><rect width="1916" height="93" transform="translate(0 4262)" fill="none"/></clipPath></defs><g transform="translate(0 -4262)" clip-path="url(#a)"><path d="M39.142,240.263h-.011c-8.851,0-16.409-1.275-22.463-3.786a28.776,28.776,0,0,1-11.582-8.324,23.068,23.068,0,0,1-4.306-8.324,16.689,16.689,0,0,1-.634-3.783V48.746L0,0H2579.452l-1.272,161.576v52.469a230.647,230.647,0,0,0-19.764-21.933c-7.668-7.643-16.01-15.206-24.794-22.481a403.282,403.282,0,0,0-34.816-25.771,417.669,417.669,0,0,0-99.933-48.253c-10.247-3.364-20.791-6.385-31.339-8.979-11.1-2.729-22.5-5.058-33.9-6.923-11.95-1.956-24.217-3.455-36.461-4.455-12.8-1.046-25.933-1.577-39.034-1.577-12.813,0-25.941.507-39.018,1.508-13.575,1.039-27.47,2.638-41.3,4.752-14.328,2.19-28.994,4.995-43.589,8.337-15.085,3.454-30.522,7.58-45.885,12.263-46.742,9.9-89.451,14.719-130.57,14.72-17.072,0-33.677-.811-50.764-2.479-15.311-1.495-30.721-3.655-47.11-6.6-30.574-5.5-59.484-12.826-90.09-20.58l-.047-.012c-29.347-7.435-59.693-15.123-93.016-21.506-18.009-3.45-35.193-6.2-52.534-8.417-19.557-2.5-38.734-4.238-58.627-5.325-28.932-1.579-54.586-2.347-78.43-2.347-39.826,0-74.117,2.173-107.916,6.84-30.826,4.257-58.283,10.1-90.075,16.866l-.011,0c-42.6,9.065-90.877,19.34-161.834,28.842-12.754,1.869-25.966,3.277-39.268,4.184-12.673.864-25.848,1.3-39.158,1.3-18.378,0-37.107-.794-57.258-2.428-17.962-1.456-36.671-3.554-57.2-6.414C896.3,91.867,857.41,84.637,819.8,77.645l-2.163-.4c-36.043-6.7-76.9-14.293-116.812-19.786-21.1-2.9-40.423-5.036-59.085-6.521-20.925-1.664-40.446-2.473-59.678-2.473-11.732,0-23.4.316-34.68.938-11.78.649-23.533,1.653-34.934,2.984-11.836,1.381-23.682,3.161-35.209,5.289-11.914,2.2-23.86,4.841-35.506,7.85-12,3.1-24.055,6.693-35.823,10.671-12.1,4.091-24.268,8.717-36.162,13.748-12.208,5.165-24.5,10.913-36.522,17.083-12.325,6.325-24.741,13.281-36.9,20.677-34.721,21.421-67.112,40.081-96.275,55.461-26.556,14-51.035,25.607-72.759,34.485C90.564,232.654,60.908,240.263,39.142,240.263Z" transform="translate(-354.351 4222.201)" fill="#7d5a50"/></g></svg>