<svg xmlns="http://www.w3.org/2000/svg" width="40" height="39" viewBox="0 0 40 39"><g transform="translate(0.099)"><rect width="40" height="39" rx="6" transform="translate(-0.099 0)" fill="#7d5a50"/><path d="M44.323,18.2A11.544,11.544,0,0,0,55.971,6.548V5.994a9.017,9.017,0,0,0,2-2.108,9.209,9.209,0,0,1-2.33.666,4.316,4.316,0,0,0,1.775-2.219,10.175,10.175,0,0,1-2.551,1,3.962,3.962,0,0,0-3-1.331,4.168,4.168,0,0,0-4.1,4.1,2.163,2.163,0,0,0,.111.887,11.469,11.469,0,0,1-8.431-4.326,4.248,4.248,0,0,0-.555,2.108,4.407,4.407,0,0,0,1.775,3.439,3.74,3.74,0,0,1-1.886-.555h0A4.054,4.054,0,0,0,42.1,11.651,3.42,3.42,0,0,1,41,11.762a1.888,1.888,0,0,1-.777-.111A4.2,4.2,0,0,0,44.1,14.535,8.376,8.376,0,0,1,39,16.31a3.071,3.071,0,0,1-1-.111,10.471,10.471,0,0,0,6.323,2" transform="translate(-27.198 10.332)" fill="#fff" fill-rule="evenodd"/></g></svg>