<svg id="Group_229" data-name="Group 229" xmlns="http://www.w3.org/2000/svg" width="54.68" height="57.691" viewBox="0 0 54.68 57.691">
  <path id="Path_2468" data-name="Path 2468" d="M581.5,132.523c-.076-2.227-3.224-3.64-2.866-5.843.287-1.764,2.79-2.954,2.256-4.665-.416-1.319-2.221-1.424-3.37-2.2-1.741-1.184-1.594-4.091,0-5.462a5.489,5.489,0,0,1,5.943-.393,11.528,11.528,0,0,1,4.12,3.991,7.629,7.629,0,0,0-.205-2.016c-.193-1.09-.006-2.549,1.073-2.807,1.219-.293,2.016,1.231,2.309,2.45s.979,2.76,2.221,2.579c1.647-.246,1.36-3.048,2.79-3.9,1.043-.627,2.444.217,2.93,1.33a9.565,9.565,0,0,1,.4,3.593,4,4,0,0,0,1.313,3.259c1.647,1.149,4.1-.164,5.855.815,1.84,1.026,1.717,3.8,3.159,5.339a6.1,6.1,0,0,0,3.464,1.495,8.658,8.658,0,0,1,3.622,1.172,2.617,2.617,0,0,1,.944,3.352c-.656.99-2.063,1.125-3.241.926a9.662,9.662,0,0,0-3.516-.393,6.319,6.319,0,0,0-3.147,2.245q-1.908,2.075-3.81,4.15c-.762.826-1.541,2.11-.8,2.948,1.049,1.19,3.042-.6,4.53-.059,1.149.416,1.348,2.075.739,3.136a9.545,9.545,0,0,1-2.69,2.473,3.845,3.845,0,0,0-1.788,3.042c.123,1.647,1.9,2.579,2.866,3.921a4.376,4.376,0,0,1-4.566,6.81c-1.764-.422-3.323-1.94-5.117-1.653-2.069.334-3.37,2.96-5.462,2.866-2.632-.111-3.382-4.214-5.937-4.835-1.881-.457-4.2,1.131-5.615-.182-.99-.92-.645-2.544-.135-3.792s1.114-2.708.44-3.874c-.715-1.248-2.415-1.389-3.845-1.495s-3.165-.6-3.464-2.01c-.334-1.559,1.424-2.884,1.418-4.478-.006-1.536-1.565-2.544-2.954-3.2s-2.989-1.524-3.188-3.048c-.252-1.858,1.875-3.235,3.751-3.276s3.7.727,5.574.744S581.567,134.4,581.5,132.523Z" transform="translate(-563.084 -107.339)" fill="#68361d"/>
  <path id="Path_2469" data-name="Path 2469" d="M562.134,153.325a1.528,1.528,0,0,1-1.805.856l-.011,0a1.247,1.247,0,0,1-.819-1.247,1.773,1.773,0,0,1,.519-1.358,1.324,1.324,0,0,1,1.418-.123A1.535,1.535,0,0,1,562.134,153.325Z" transform="translate(-559.499 -123.154)" fill="#68361d"/>
  <path id="Path_2470" data-name="Path 2470" d="M563.766,144.34a1.749,1.749,0,0,1-.188-1.524h0a2.573,2.573,0,0,1,1.5-1.717,2.181,2.181,0,0,1,2.649,1.225,2.056,2.056,0,0,1-.211,1.752,2.4,2.4,0,0,1-1.453,1.032A2.2,2.2,0,0,1,563.766,144.34Z" transform="translate(-561.148 -118.892)" fill="#68361d"/>
  <path id="Path_2471" data-name="Path 2471" d="M612.989,106.03l-.135.006a2.54,2.54,0,0,1,.4-1.436,3.162,3.162,0,0,1,2.456-1.319,4.787,4.787,0,0,1,2.731.774,6.58,6.58,0,0,1,2.925,4.009,2.7,2.7,0,0,1,.012,1.495,1.256,1.256,0,0,1-1.108.9c-.639.006-1.108-.6-1.36-1.19a4.037,4.037,0,0,0-.932-1.653,2.3,2.3,0,0,0-1.571-.4c-.551.029-1.1.152-1.653.147a1.978,1.978,0,0,1-1.5-.58A1.166,1.166,0,0,1,612.989,106.03Z" transform="translate(-581.583 -103.275)" fill="#68361d"/>
  <path id="Path_2472" data-name="Path 2472" d="M642.6,158.844a1.186,1.186,0,0,1-1.067.451c-.568-.088-.949-.61-1.436-.914a2.08,2.08,0,0,0-2.549.346c-.223.24-.387.539-.633.762a.815.815,0,0,1-.908.193.942.942,0,0,1-.363-.809,2.846,2.846,0,0,1,2.5-2.9,4.116,4.116,0,0,1,2.251-.563,2.661,2.661,0,0,1,2.549,2.3A1.639,1.639,0,0,1,642.6,158.844Z" transform="translate(-591.016 -124.851)" fill="#68361d"/>
  <path id="Path_2473" data-name="Path 2473" d="M637.521,191.091a5.879,5.879,0,0,0,.141-2.555,3.526,3.526,0,0,1-.6-.873,1.547,1.547,0,0,1,.023-1.442,1.473,1.473,0,0,1,1.87-.387,2.874,2.874,0,0,1,1.266,1.606,5.715,5.715,0,0,1-.891,5.5c-.352.434-.891.85-1.424.68a1.151,1.151,0,0,1-.692-1.143A5.417,5.417,0,0,1,637.521,191.091Z" transform="translate(-591.533 -137.376)" fill="#68361d"/>
  <path id="Path_2474" data-name="Path 2474" d="M606.623,146.142v-2.378a1.246,1.246,0,0,1,1.3-1.414h3.326v-5.078h-4.58c-5.094,0-6.235,3.76-6.235,6.2v2.667h-2.957v5.93h2.989v14.816h5.93V152.072h4.387l.193-2.33.353-3.6Z" transform="translate(-575.219 -117.347)" fill="#fff" fill-rule="evenodd"/>
</svg>
