<svg id="Group_231" data-name="Group 231" xmlns="http://www.w3.org/2000/svg" width="59.716" height="60.163" viewBox="0 0 59.716 60.163">
  <path id="Path_2481" data-name="Path 2481" d="M613.95,418.653a1.907,1.907,0,0,1-.023-1.647,2.654,2.654,0,0,1,.375-.633,1.678,1.678,0,0,1,.768-.779,3.551,3.551,0,0,1,1.788-.246,11.64,11.64,0,0,1,4.114,1.043,3.116,3.116,0,0,1,1.512,1.2,1.3,1.3,0,0,1-.358,1.729,1.457,1.457,0,0,1-1.676-.469c-.422-.463-.668-1.055-1.043-1.553a1.677,1.677,0,0,0-1.594-.768c-1.242.293-1.2,2.426-2.426,2.778A1.3,1.3,0,0,1,613.95,418.653Z" transform="translate(-579.436 -360.296)" fill="#68361d"/>
  <path id="Path_2482" data-name="Path 2482" d="M619.935,332.47a3.838,3.838,0,0,1,1.213-1.694h0a4.357,4.357,0,0,1,6.963.211,3.089,3.089,0,0,1,.533,2.28,2.028,2.028,0,0,1-1.577,1.623c-1.541.234-2.86-1.659-4.384-1.313-.656.147-1.243.7-1.9.58A1.347,1.347,0,0,1,619.935,332.47Z" transform="translate(-581.976 -324.616)" fill="#68361d"/>
  <path id="Path_2483" data-name="Path 2483" d="M569.4,401.951A1.088,1.088,0,0,1,568.3,403a1.288,1.288,0,0,1-1.049-.938,2.356,2.356,0,0,1-.07-.991,1.488,1.488,0,0,1,1.219-.322A1.266,1.266,0,0,1,569.4,401.951Z" transform="translate(-560.153 -354.249)" fill="#68361d"/>
  <path id="Path_2484" data-name="Path 2484" d="M555.881,352.839a2.035,2.035,0,0,1-.5-.93,4.734,4.734,0,0,1-.066-2.327c.1-.49.232-1.073.336-1.466a5.489,5.489,0,0,1,3.03-3.54,2.535,2.535,0,0,1,1.53-.252,1.262,1.262,0,0,1,1.026,1.055,1.644,1.644,0,0,1-.838,1.33,5.055,5.055,0,0,0-1.3,1c-.99,1.307.281,3.393-.609,4.771A1.822,1.822,0,0,1,555.881,352.839Z" transform="translate(-555.202 -330.889)" fill="#68361d"/>
  <path id="Path_2485" data-name="Path 2485" d="M566.69,392.16a2.235,2.235,0,0,1,0,2.1,1.657,1.657,0,0,1-1.87.779,1.838,1.838,0,0,1-1.143-1.664,3.429,3.429,0,0,1,.41-1.676,1.6,1.6,0,0,1,1.1-.58A1.72,1.72,0,0,1,566.69,392.16Z" transform="translate(-558.709 -350.272)" fill="#68361d"/>
  <path id="Path_2486" data-name="Path 2486" d="M650.091,377.2a2.048,2.048,0,0,1-2.573.6c-.832-.6-.674-1.87-.445-2.872s.328-2.292-.539-2.843c-.967-.6-2.356.223-3.329-.363-.862-.522-.809-1.858-.24-2.7a16.7,16.7,0,0,1,2.169-2.1l.193-.211a4.831,4.831,0,0,1,.006-2.825,2.072,2.072,0,0,1,2.555-1.33,2.216,2.216,0,0,1,1.049,2.333,14.958,14.958,0,0,1-.809,2.614,3.081,3.081,0,0,0,.147,2.643,7.249,7.249,0,0,0,1.442,1.254A4.207,4.207,0,0,1,650.091,377.2Z" transform="translate(-591.355 -338.404)" fill="#68361d"/>
  <path id="Path_2487" data-name="Path 2487" d="M556.792,350.814c-.516-1.489.873-3.012,2.356-3.54s3.13-.492,4.583-1.1,2.673-2.339,1.917-3.716c-.563-1.037-2.1-1.67-1.9-2.837.258-1.541,2.843-.973,3.933-2.1.867-.885.4-2.374-.223-3.44-.685-1.182-1.547-2.556-.776-3.817a2.449,2.449,0,0,1,2.223-1.086c2,.086,3.4,1.537,5.164,2.171,1.354.481,3.188.24,3.763-1.078.926-2.139-2.3-4.091-2.122-6.418a2.882,2.882,0,0,1,2.848-2.426,4.729,4.729,0,0,1,3.54,1.811,14.191,14.191,0,0,1,1.993,3.569,10.24,10.24,0,0,1,.625,2.976c.151,1.131.02,2.4,1.766,2.75h0c1.541-.4,1.547-3.259,3.171-3.61.967-.205,1.858.721,2.11,1.676a23.713,23.713,0,0,1,.229,2.966,2.429,2.429,0,0,0,1.659,2.233c1.6.293,2.661-1.893,4.278-2.045,1.137-.111,2.081.815,2.843,1.659l4.689,5.2c1.16,1.289,2.4,2.766,2.362,4.507-.064,3.042-3.962,5.187-3.5,8.188.328,2.163,2.766,3.382,3.522,5.427.867,2.327-.668,4.8-2.128,6.8l-5.117,7.051c-.926,1.278-2.092,2.684-3.669,2.7-1.623.018-2.971-1.495-4.595-1.436-1.952.064-3.036,2.21-3.768,4.021s-2.028,3.9-3.968,3.71c-2.6-.264-3.364-4.39-5.949-4.712-1.1-.135-2.3.486-3.276-.047-2.01-1.1-.006-5.011-1.958-6.207-1.073-.656-2.5.123-3.7-.258-1.09-.346-1.647-1.518-2.086-2.579a7.747,7.747,0,0,1-.873-4.255c.217-1.184.979-2.2,1.289-3.37s-.105-2.725-1.289-2.948c-.873-.158-1.664.481-2.391,1s-1.776.908-2.456.334c-.932-.791-.1-2.327-.363-3.522C561.059,352.883,557.508,352.871,556.792,350.814Z" transform="translate(-555.815 -321.427)" fill="#68361d"/>
  <path id="Path_2488" data-name="Path 2488" d="M588.222,367.121a7.432,7.432,0,1,1,7.424,7.44,7.441,7.441,0,0,1-7.424-7.44Zm15.106-14.543H587.981a6.9,6.9,0,0,0-6.878,6.878V374.8a6.906,6.906,0,0,0,6.878,6.878h15.347a6.9,6.9,0,0,0,6.878-6.878V359.456a6.885,6.885,0,0,0-6.878-6.878Zm-15.347,1.72h15.347a5.164,5.164,0,0,1,5.158,5.158V374.8a5.164,5.164,0,0,1-5.158,5.158H587.981a5.164,5.164,0,0,1-5.159-5.158V359.456a5.164,5.164,0,0,1,5.159-5.158Zm16.873,2.169a1.51,1.51,0,1,0,1.511,1.51,1.509,1.509,0,0,0-1.511-1.51Zm.177,10.654a9.385,9.385,0,1,0-9.385,9.385,9.385,9.385,0,0,0,9.385-9.385Z" transform="translate(-565.923 -334.321)" fill="#fff" fill-rule="evenodd"/>
</svg>
