<svg id="Group_230" data-name="Group 230" xmlns="http://www.w3.org/2000/svg" width="61.401" height="56.2" viewBox="0 0 61.401 56.2">
  <path id="Path_2475" data-name="Path 2475" d="M623.248,519.011a3.138,3.138,0,0,1-3.673-2.121,6.421,6.421,0,0,1,.447-4.569,14.512,14.512,0,0,1,4.218-5.621,4.549,4.549,0,0,1,2.338-1.141,1.968,1.968,0,0,1,2.1,1.236,1.378,1.378,0,0,1-.62,1.457l.039.077a5.009,5.009,0,0,0-2.309,2.806,20.883,20.883,0,0,0-.371,4.351C625.281,516.943,624.629,518.538,623.248,519.011Z" transform="translate(-580.182 -462.931)" fill="#68361d"/>
  <path id="Path_2476" data-name="Path 2476" d="M558.91,491.333a1.534,1.534,0,0,1-.616-1.15,6.093,6.093,0,0,1,5.082-7,4.03,4.03,0,0,1,2.929.553,2.407,2.407,0,0,1,.972,2.668c-.34.956-1.345.954-2.472.913h0a5.634,5.634,0,0,0-3.639,2.387,6.425,6.425,0,0,1-.84,1.3A1.255,1.255,0,0,1,558.91,491.333Z" transform="translate(-558.217 -454.869)" fill="#68361d"/>
  <path id="Path_2477" data-name="Path 2477" d="M596.163,455.223a2.323,2.323,0,0,1-.846-1.947,8.368,8.368,0,0,1,.474-3.177h0a2.04,2.04,0,0,1,.788-.794,1.8,1.8,0,0,1,1.787-.141,2.283,2.283,0,0,1,1.179,1.787,4.914,4.914,0,0,1-.307,2.184,4.046,4.046,0,0,1-1.083,1.826A1.76,1.76,0,0,1,596.163,455.223Z" transform="translate(-571.551 -442.6)" fill="#68361d"/>
  <path id="Path_2478" data-name="Path 2478" d="M618.021,464.076c-1.179,1.441-2.306,3.094-2.325,4.951-.026,2.825,2.5,5.573,1.422,8.18-.871,2.1-3.574,2.69-5.842,2.524s-4.612-.788-6.738.013A8.827,8.827,0,0,0,600.3,484a31.927,31.927,0,0,1-3.075,5.291c-1.313,1.569-3.356,2.735-5.355,2.306-2.767-.6-4.593-4.01-7.417-3.8-2.876.211-4.823,4.176-7.635,3.517-2.159-.512-2.7-3.273-4.1-5-1.524-1.883-4.08-2.479-6.277-3.51s-4.362-3.2-3.734-5.534c.532-1.941,2.665-2.87,4.49-3.721s3.824-2.351,3.593-4.349c-.243-2.082-2.716-3.087-3.786-4.894a5.437,5.437,0,0,1-.295-4.33,16.157,16.157,0,0,1,2.1-3.933q1.537-2.335,3.081-4.669a10.043,10.043,0,0,1,2.261-2.684A4.991,4.991,0,0,1,581.9,451.3a16.94,16.94,0,0,0,.82,3.337c1,1.858,3.753,2.191,5.541,1.07a7.382,7.382,0,0,0,2.985-5.355c.269-1.9.109-3.843.371-5.746a6.708,6.708,0,0,1,2.665-4.894,5.867,5.867,0,0,1,6.226.468,14.725,14.725,0,0,1,4.176,5.041s.382.5.762-.154a6.5,6.5,0,0,1,1.435-2.1,2.54,2.54,0,0,1,3.446.916,5.541,5.541,0,0,1,.487,3.882,21.912,21.912,0,0,0-.6,3.952A3.741,3.741,0,0,0,612,455.07c2.2,1.076,4.894-1.243,7.18-.372,1.742.66,2.351,2.94,1.838,4.727A13.828,13.828,0,0,1,618.021,464.076Z" transform="translate(-559.793 -439.014)" fill="#68361d"/>
  <path id="Path_2479" data-name="Path 2479" d="M646.728,448.3a5.1,5.1,0,0,1-2.043,6.425c-.519.307-1.255.493-1.665.058a1.328,1.328,0,0,1-.147-1.262,3.438,3.438,0,0,0,.282-1.294c-.083-1.018-1.294-1.512-1.813-2.4a1.778,1.778,0,0,1-.237-.967,2.262,2.262,0,0,1,.666-2.293,2.825,2.825,0,0,1,2.876-.4A4.023,4.023,0,0,1,646.728,448.3Z" transform="translate(-587.981 -441.509)" fill="#68361d"/>
  <path id="Path_2480" data-name="Path 2480" d="M610.743,468.34a12.945,12.945,0,0,1-3.487.948,5.993,5.993,0,0,0,2.684-3.326,12.383,12.383,0,0,1-3.872,1.462,6.106,6.106,0,0,0-10.527,4.081,6.244,6.244,0,0,0,.177,1.366,17.254,17.254,0,0,1-12.535-6.251,5.905,5.905,0,0,0,1.864,7.987,5.889,5.889,0,0,1-2.747-.739v.08a5.66,5.66,0,0,0,.417,2.153,6.061,6.061,0,0,0,4.468,3.7,5.973,5.973,0,0,1-1.607.225,5.418,5.418,0,0,1-1.142-.128,6.132,6.132,0,0,0,5.674,4.178,12.3,12.3,0,0,1-7.537,2.555c-.5,0-.964-.033-1.462-.08a17.546,17.546,0,0,0,9.32,2.684,16.912,16.912,0,0,0,16.888-13.4,16.431,16.431,0,0,0,.4-3.615v-.772a12.57,12.57,0,0,0,3.021-3.1Z" transform="translate(-563.823 -449.128)" fill="#fff" fill-rule="evenodd"/>
</svg>
