<svg id="Group_232" data-name="Group 232" xmlns="http://www.w3.org/2000/svg" width="55.029" height="51.652" viewBox="0 0 55.029 51.652">
  <path id="Path_2489" data-name="Path 2489" d="M560.211,253.054l-.024-.018a2.729,2.729,0,0,1,.721-.51,1.545,1.545,0,0,1,2.051.563,2.258,2.258,0,0,1-.305,1.834c-.481.99-.955,1.981-1.436,2.971-.164.334-.393.721-.768.733-.345.012-.6-.311-.762-.615A4.634,4.634,0,0,1,560.211,253.054Z" transform="translate(-559.201 -232.55)" fill="#68361d"/>
  <path id="Path_2490" data-name="Path 2490" d="M581.733,226.785a3.311,3.311,0,0,1-.445-3.423,4.875,4.875,0,0,1,2.561-2.456,7.32,7.32,0,0,1,1.659-.5h0a5.229,5.229,0,0,1,1.881.287,2.915,2.915,0,0,1,2.175,1.682,2.029,2.029,0,0,1-.832,2.485c-.575.293-1.278.24-1.859.527-.785.4-1.154,1.33-1.864,1.858A2.526,2.526,0,0,1,581.733,226.785Z" transform="translate(-568.227 -219.31)" fill="#68361d"/>
  <path id="Path_2491" data-name="Path 2491" d="M563.38,234.291c-.972-1.067-.978-2.673-.891-4.114a11.28,11.28,0,0,1,.909-4.437,4.221,4.221,0,0,1,3.546-2.5c3.733,0,5.052,6.048,8.779,6.33,1.73.129,3.236-1.09,4.536-2.233,1.436-1.266,2.949-2.649,3.382-4.513.275-1.19.117-2.573.914-3.493a2.836,2.836,0,0,1,3.071-.569,6.066,6.066,0,0,1,1.834,1.131,2.543,2.543,0,0,0,2.708.856c1.055-.4,1.987-1.19,3.112-1.242a3.605,3.605,0,0,1,3.207,2.444,21,21,0,0,1,.884,4.2,5.35,5.35,0,0,0,2.051,3.645c1.993,1.26,4.87.129,6.822,1.448,1.682,1.137,1.875,3.528,1.577,5.533s-.9,4.1-.223,6a15.25,15.25,0,0,0,2.04,3.235,4.481,4.481,0,0,1,.944,3.593c-.733,2.585-4.713,2.9-5.727,5.386-.621,1.512.111,3.194.7,4.718s.979,3.429-.117,4.63c-1.184,1.3-3.281.938-4.941.381s-3.6-1.19-5.052-.211c-1.635,1.108-1.665,3.651-3.182,4.917-1.424,1.184-3.541.791-5.339.334-1.753-.445-3.628-.967-4.777-2.362a23.153,23.153,0,0,1-1.6-2.807,3.046,3.046,0,0,0-2.567-1.694c-1.272.082-2.092,1.336-2.749,2.438s-1.589,2.315-2.867,2.227c-1.641-.111-2.362-2.251-3.886-2.866-2.163-.879-5,1.594-6.757.059a2.7,2.7,0,0,1-.445-3.065,11.49,11.49,0,0,1,1.951-2.661,17.924,17.924,0,0,0,2.831-4.624c.668-1.588,1.1-3.452.334-5-.826-1.688-2.912-2.678-3.259-4.525-.258-1.389.574-2.719,1.266-3.95s1.278-2.784.563-4C566.212,235.633,564.388,235.4,563.38,234.291Z" transform="translate(-560.548 -218.558)" fill="#68361d"/>
  <path id="Path_2492" data-name="Path 2492" d="M648.031,278.054a2.806,2.806,0,0,1,.522,2.948,5.531,5.531,0,0,1-2.854,2.391,2.428,2.428,0,0,1-1.987.363,2.133,2.133,0,0,1-1.026-1.77,4.357,4.357,0,0,1,.27-2.4,2.509,2.509,0,0,1,.632-.826,2.72,2.72,0,0,1,4.443-.7Z" transform="translate(-593.734 -242.833)" fill="#68361d"/>
  <path id="Path_2493" data-name="Path 2493" d="M630.676,228.029a4.266,4.266,0,0,1,8.018,2.614c-.111.656-.481,1.371-1.131,1.465a1.43,1.43,0,0,1-1.143-.445c-.305-.293-.545-.651-.832-.955a3.52,3.52,0,0,0-2.562-1.084,3.284,3.284,0,0,1-1.793-.176A1.459,1.459,0,0,1,630.676,228.029Z" transform="translate(-588.78 -221.515)" fill="#68361d"/>
  <path id="Path_2494" data-name="Path 2494" d="M610.724,253.186a14.54,14.54,0,0,0-29.054-.273,3.981,3.981,0,0,0-.032.627A14.412,14.412,0,0,0,583.728,261l-2.636,7.746,8.066-2.555a14.59,14.59,0,0,0,21.581-12.647c0-.128-.015-.225-.015-.353Zm-7.874,3.279c-.369-.177-2.1-1.045-2.426-1.173-.355-.1-.578-.177-.82.193a15.113,15.113,0,0,1-1.124,1.366c-.209.258-.418.274-.755.113a9.043,9.043,0,0,1-2.877-1.767,10.511,10.511,0,0,1-1.992-2.427c-.193-.386-.033-.546.144-.755a4.191,4.191,0,0,0,.547-.611.6.6,0,0,0,.128-.161,3.5,3.5,0,0,0,.225-.418.552.552,0,0,0-.032-.611c-.064-.176-.786-1.944-1.093-2.636-.288-.722-.595-.594-.786-.594-.226,0-.45-.032-.691-.032a1.228,1.228,0,0,0-.948.45,3.812,3.812,0,0,0-1.27,2.956,3.7,3.7,0,0,0,.209,1.19,7.886,7.886,0,0,0,1.254,2.459c.176.24,2.458,3.921,6.089,5.335,3.648,1.414,3.648.932,4.291.884a3.544,3.544,0,0,0,2.411-1.687,2.9,2.9,0,0,0,.193-1.688,2.043,2.043,0,0,0-.675-.385Zm-6.668,9.224a12.19,12.19,0,0,1-6.717-2.009l-4.692,1.495,1.51-4.515a12.031,12.031,0,0,1-2.33-7.119,9.612,9.612,0,0,1,.064-1.173,12.236,12.236,0,0,1,24.361.226,9.293,9.293,0,0,1,.033.948,12.208,12.208,0,0,1-12.229,12.149Z" transform="translate(-568.262 -227.071)" fill="#fff" fill-rule="evenodd"/>
</svg>
